inDegrees=no
num_controls=7
num_derivatives=13
num_iterations=110
num_multipliers=7
num_parameters=0
num_slacks=7
num_states=26
objective=0.465629
objective_accelerations=0.001327
objective_balance=0.001876
objective_effort=0.003745
objective_height=0.447080
objective_ligament=0.011602
solver_duration=1596.474075
status=Solve_Succeeded
success=true
DataType=double
version=3
OpenSimVersion=4.5
endheader
time	/jointset/ground_pelvis/pelvis_tilt/value	/jointset/ground_pelvis/pelvis_tx/value	/jointset/ground_pelvis/pelvis_ty/value	/jointset/hip_l/hip_flexion_l/value	/jointset/hip_l/hip_adduction_l/value	/jointset/hip_l/hip_rotation_l/value	/jointset/back/lumbar_extension/value	/jointset/patellofemoral_l/patellar_flexion_l/value	/jointset/knee_l/knee_flexion_l/value	/jointset/knee_l/knee_adduction_l/value	/jointset/knee_l/knee_rotation_l/value	/jointset/ankle_l/ankle_angle_l/value	/jointset/subtalar_l/subtalar_angle_l/value	/jointset/ground_pelvis/pelvis_tilt/speed	/jointset/ground_pelvis/pelvis_tx/speed	/jointset/ground_pelvis/pelvis_ty/speed	/jointset/hip_l/hip_flexion_l/speed	/jointset/hip_l/hip_adduction_l/speed	/jointset/hip_l/hip_rotation_l/speed	/jointset/back/lumbar_extension/speed	/jointset/patellofemoral_l/patellar_flexion_l/speed	/jointset/knee_l/knee_flexion_l/speed	/jointset/knee_l/knee_adduction_l/speed	/jointset/knee_l/knee_rotation_l/speed	/jointset/ankle_l/ankle_angle_l/speed	/jointset/subtalar_l/subtalar_angle_l/speed	/forceset/tau_hip_flexion_l	/forceset/tau_hip_adduction_l	/forceset/tau_hip_rotation_l	/forceset/tau_knee_flexion_l	/forceset/tau_ankle_angle_l	/forceset/tau_subtalar_angle_l	/forceset/tau_lumbar_extension	lambda_cid13_p0	lambda_cid13_p1	lambda_cid13_p2	lambda_cid13_p3	lambda_cid13_p4	lambda_cid13_p5	lambda_cid14_p0	/jointset/ground_pelvis/pelvis_tilt/accel	/jointset/ground_pelvis/pelvis_tx/accel	/jointset/ground_pelvis/pelvis_ty/accel	/jointset/hip_l/hip_flexion_l/accel	/jointset/hip_l/hip_adduction_l/accel	/jointset/hip_l/hip_rotation_l/accel	/jointset/back/lumbar_extension/accel	/jointset/patellofemoral_l/patellar_flexion_l/accel	/jointset/knee_l/knee_flexion_l/accel	/jointset/knee_l/knee_adduction_l/accel	/jointset/knee_l/knee_rotation_l/accel	/jointset/ankle_l/ankle_angle_l/accel	/jointset/subtalar_l/subtalar_angle_l/accel	gamma_cid13_p0	gamma_cid13_p1	gamma_cid13_p2	gamma_cid13_p3	gamma_cid13_p4	gamma_cid13_p5	gamma_cid14_p0
0.5	-0.07065402254621971	0.08981119400500584	0.8944285998017365	0.2085494957604967	-0.3245789308904137	-0.5377685863667406	-0.1687068464460602	0.09004090298902551	0.09004090298906427	-0.1745056691231295	-0.1736174093167355	-0.03657063928539656	0.01846344524906919	-0.06755226199250017	0.04812432468207675	-0.005598879344909788	0.03708729690224577	-0.0150587241886645	0.01080929291927055	-0.06139093648264518	0.05340228677304163	0.05340228677305114	3.859194142811356e-06	-0.0003778685059497076	0.08169810891383864	0.02914611569080446	-0.01268991475132434	0.04588370646451557	-0.01911286895525346	-0.09007267051471005	0.05702420281166615	-0.039011075091398	0.0547614403527549	-19.07286626435335	12.17455351795617	6.983814666346892	2.351420149258189	-546.408931965169	-36.76230910541813	-41.88020267640587	-0.001011390545936958	-0.009679672491918855	-0.001376125138638294	-0.008325960551255727	0.01141618655503978	-0.02080544105749424	0.1857093305431744	-0.04202243837833521	-0.04202243837833605	-0.0003494718143602043	-0.004801550629133974	-0.03285697677191408	-0.00360602654783511	2.203502318219562e-10	1.36538716366217e-10	-4.954348925257874e-10	-1.81263482887942e-11	2.216919025086872e-10	7.848243510808362e-10	5.826982176000815e-11
0.51	-0.07132955794138829	0.09029191703111886	0.8943725466378702	0.2089199386425162	-0.3247289301532327	-0.5376615704552705	-0.1693113485848229	0.0905727833271056	0.0905727833270964	-0.1745056378218049	-0.1736214545582511	-0.0357553643616367	0.01875470974162008	-0.06755097426032861	0.04801687914506827	-0.005611150296765312	0.03699745843232456	-0.01493921311408348	0.01059223804777557	-0.05949643346238825	0.05296576507201353	0.05296576507201869	1.848386078799776e-06	-0.0004305004952488303	0.08134891254755906	0.02910442084761917	-0.01354612261817377	0.04699512027711992	-0.01888691982870788	-0.08862766291483437	0.05489785741146603	-0.03888978772129136	0.05542678125415575	-19.73980869021537	12.22151779992875	6.995902307119866	2.559802980549733	-546.4362268821164	-36.58556911205661	-41.88848246401176	0.001275297718817008	-0.01178720689267638	-0.001062070097303825	-0.009885922269118146	0.01250596484567686	-0.02240313593981876	0.193279459191112	-0.04566941232428169	-0.04566941232492336	-0.0002098610827811938	-0.005392200634353177	-0.03714543325081035	-0.004805478418908165	2.422651069788464e-10	1.976801047409191e-10	-5.55273038585652e-10	-1.850126975640003e-11	2.626965472321099e-10	9.010518127835812e-10	6.60584449710254e-11
0.52	-0.07200496517071604	0.09077146355934394	0.8943163888665076	0.209289368513412	-0.3248776768259187	-0.5375567746176619	-0.1698965139591026	0.0911000579728638	0.09110005797285829	-0.1745056432237093	-0.1736260057552244	-0.03494382029487859	0.01904548643269614	-0.06752662882332942	0.04788902510449286	-0.005619800844175776	0.03688469468013773	-0.0148082061620679	0.0103652781465045	-0.05752358358514438	0.05248114831661613	0.05248114831661693	-3.481453196761642e-06	-0.00047905958670706	0.08095193751348802	0.02904855539583411	-0.01440233048512367	0.04810653408974919	-0.01866097070184759	-0.0871826553150474	0.05277151201125838	-0.03876850035116488	0.05609212215546661	-20.40716892478197	12.26837690263731	7.008210417793364	2.770054976785746	-546.4691721488615	-36.40995463916438	-41.89666677414994	0.003600150419601055	-0.01376137320526782	-0.0006520442496212499	-0.01291101700447249	0.01371536204195416	-0.02278644701272226	0.2013787019406459	-0.05164144925224706	-0.05164144925224857	-0.001013278056681994	-0.00398697106094164	-0.04241271033018777	-0.006440148267770873	2.839616215826882e-10	2.573721452033478e-10	-6.361025952296725e-10	-2.181189454558266e-11	3.857740566780123e-10	1.003273129286564e-09	8.664255035442604e-11
0.53	-0.07268001282224854	0.09124962971894206	0.894260162685303	0.209657561207683	-0.32502505554515	-0.5374542953658106	-0.1704615692062695	0.09162225536390152	0.09162225536392127	-0.1745057118017559	-0.1736310229395476	-0.03413647902530156	0.01933563719611915	-0.06747862043227054	0.04774085673676425	-0.00562476971895859	0.03674960531497983	-0.01466550549703179	0.01012928851779157	-0.05547572101092058	0.05195034616216859	0.05195034616215598	-1.045510675420831e-05	-0.0005233381544984999	0.08050853975248592	0.02897945239201831	-0.01523277894213382	0.049190113359888	-0.0184408176406997	-0.08577485993232539	0.0506928885134997	-0.03865081648377598	0.05673443991341421	-21.05913870685707	12.31448629867514	7.020203944705786	2.971691392542089	-546.4965676625213	-36.23817658371284	-41.9047486063995	0.006043368966175462	-0.01584708490619466	-0.0003193673252351857	-0.01444369089793536	0.01485236071152977	-0.02419767476013022	0.2082517610190783	-0.05499717715340498	-0.05499717715541395	-0.000572630008007989	-0.004492534606193396	-0.04646976865660127	-0.007467081672602099	2.936258599623866e-10	2.979747083969333e-10	-6.665042415695805e-10	-7.709996726390473e-12	4.201838667363421e-10	1.085536658363714e-09	8.924680674084806e-11
